HIERARCHY
ROOT Hips
{
	OFFSET -14.64140 90.27770 -84.91600
	CHANNELS 6 Xposition Yposition Zposition Zrotation Xrotation Yrotation
	JOINT Spine
	{
		OFFSET 0.00000 13.20850 -1.60436
		CHANNELS 3 Zrotation Xrotation Yrotation
		JOINT Spine1
		{
			OFFSET 0.00000 8.61716 0.00000
			CHANNELS 3 Zrotation Xrotation Yrotation
			JOINT Spine2
			{
				OFFSET 0.00000 8.61717 0.00000
				CHANNELS 3 Zrotation Xrotation Yrotation
				JOINT Spine3
				{
					OFFSET 0.00000 8.61717 0.00000
					CHANNELS 3 Zrotation Xrotation Yrotation
					JOINT Neck
					{
						OFFSET 0.00000 11.07920 1.10792
						CHANNELS 3 Zrotation Xrotation Yrotation
						JOINT Neck1
						{
							OFFSET 0.00000 7.08032 0.00000
							CHANNELS 3 Zrotation Xrotation Yrotation
							JOINT Head
							{
								OFFSET 0.00000 7.08031 0.00000
								CHANNELS 3 Zrotation Xrotation Yrotation
								End site
								{
									OFFSET 0.00000 0.00000 0.00000
								}
							}
						}
					}
					JOINT RightShoulder
					{
						OFFSET -0.01000 7.91373 5.19711
						CHANNELS 3 Zrotation Xrotation Yrotation
						JOINT RightArm
						{
							OFFSET -18.41580 0.00000 0.00000
							CHANNELS 3 Zrotation Xrotation Yrotation
							JOINT RightForeArm
							{
								OFFSET -29.11090 0.00000 0.00000
								CHANNELS 3 Zrotation Xrotation Yrotation
								JOINT RightHand
								{
									OFFSET -24.65040 0.00000 0.00000
									CHANNELS 3 Zrotation Xrotation Yrotation
									JOINT RightHandThumb1
									{
										OFFSET -5.35114 -0.85590 3.97906
										CHANNELS 3 Zrotation Xrotation Yrotation
										JOINT RightHandThumb2
										{
											OFFSET -4.52789 0.00000 0.00000
											CHANNELS 3 Zrotation Xrotation Yrotation
											JOINT RightHandThumb3
											{
												OFFSET -2.46976 0.00000 0.00000
												CHANNELS 3 Zrotation Xrotation Yrotation
												End site
												{
													OFFSET 0.00000 0.00000 0.00000
												}
											}
										}
									}
									JOINT RightHandIndex1
									{
										OFFSET -14.26970 0.00000 2.88139
										CHANNELS 3 Zrotation Xrotation Yrotation
										JOINT RightHandIndex2
										{
											OFFSET -5.48836 0.00000 0.00000
											CHANNELS 3 Zrotation Xrotation Yrotation
											JOINT RightHandIndex3
											{
												OFFSET -3.01859 0.00000 0.00000
												CHANNELS 3 Zrotation Xrotation Yrotation
												End site
												{
													OFFSET 0.00000 0.00000 0.00000
												}
											}
										}
									}
									JOINT RightHandMiddle1
									{
										OFFSET -14.26970 0.00000 -0.09147
										CHANNELS 3 Zrotation Xrotation Yrotation
										JOINT RightHandMiddle2
										{
											OFFSET -6.17441 0.00000 0.00000
											CHANNELS 3 Zrotation Xrotation Yrotation
											JOINT RightHandMiddle3
											{
												OFFSET -3.56743 0.00000 0.00000
												CHANNELS 3 Zrotation Xrotation Yrotation
												End site
												{
													OFFSET 0.00000 0.00000 0.00000
												}
											}
										}
									}
									JOINT RightHandRing1
									{
										OFFSET -12.69180 0.00000 -3.06433
										CHANNELS 3 Zrotation Xrotation Yrotation
										JOINT RightHandRing2
										{
											OFFSET -5.62556 0.00000 0.00000
											CHANNELS 3 Zrotation Xrotation Yrotation
											JOINT RightHandRing3
											{
												OFFSET -3.56744 0.00000 0.00000
												CHANNELS 3 Zrotation Xrotation Yrotation
												End site
												{
													OFFSET 0.00000 0.00000 0.00000
												}
											}
										}
									}
									JOINT RightHandPinky1
									{
										OFFSET -11.11390 0.00000 -6.03719
										CHANNELS 3 Zrotation Xrotation Yrotation
										JOINT RightHandPinky2
										{
											OFFSET -4.52789 0.00000 0.00000
											CHANNELS 3 Zrotation Xrotation Yrotation
											JOINT RightHandPinky3
											{
												OFFSET -2.46976 0.00000 0.00000
												CHANNELS 3 Zrotation Xrotation Yrotation
												End site
												{
													OFFSET 0.00000 0.00000 0.00000
												}
											}
										}
									}
								}
							}
						}
					}
					JOINT LeftShoulder
					{
						OFFSET 0.01000 7.91373 5.19711
						CHANNELS 3 Zrotation Xrotation Yrotation
						JOINT LeftArm
						{
							OFFSET 18.41580 0.00000 0.00000
							CHANNELS 3 Zrotation Xrotation Yrotation
							JOINT LeftForeArm
							{
								OFFSET 29.11090 0.00000 0.00000
								CHANNELS 3 Zrotation Xrotation Yrotation
								JOINT LeftHand
								{
									OFFSET 24.65040 0.00000 0.00000
									CHANNELS 3 Zrotation Xrotation Yrotation
									JOINT LeftHandThumb1
									{
										OFFSET 5.35114 -0.85590 3.97906
										CHANNELS 3 Zrotation Xrotation Yrotation
										JOINT LeftHandThumb2
										{
											OFFSET 4.52789 0.00000 0.00000
											CHANNELS 3 Zrotation Xrotation Yrotation
											JOINT LeftHandThumb3
											{
												OFFSET 2.46977 0.00000 0.00000
												CHANNELS 3 Zrotation Xrotation Yrotation
												End site
												{
													OFFSET 0.00000 0.00000 0.00000
												}
											}
										}
									}
									JOINT LeftHandIndex1
									{
										OFFSET 14.26970 0.00000 2.88139
										CHANNELS 3 Zrotation Xrotation Yrotation
										JOINT LeftHandIndex2
										{
											OFFSET 5.48836 0.00000 0.00000
											CHANNELS 3 Zrotation Xrotation Yrotation
											JOINT LeftHandIndex3
											{
												OFFSET 3.01859 0.00000 0.00000
												CHANNELS 3 Zrotation Xrotation Yrotation
												End site
												{
													OFFSET 0.00000 0.00000 0.00000
												}
											}
										}
									}
									JOINT LeftHandMiddle1
									{
										OFFSET 14.26970 0.00000 -0.09147
										CHANNELS 3 Zrotation Xrotation Yrotation
										JOINT LeftHandMiddle2
										{
											OFFSET 6.17440 0.00000 0.00000
											CHANNELS 3 Zrotation Xrotation Yrotation
											JOINT LeftHandMiddle3
											{
												OFFSET 3.56744 0.00000 0.00000
												CHANNELS 3 Zrotation Xrotation Yrotation
												End site
												{
													OFFSET 0.00000 0.00000 0.00000
												}
											}
										}
									}
									JOINT LeftHandRing1
									{
										OFFSET 12.69180 0.00000 -3.06433
										CHANNELS 3 Zrotation Xrotation Yrotation
										JOINT LeftHandRing2
										{
											OFFSET 5.62556 0.00000 0.00000
											CHANNELS 3 Zrotation Xrotation Yrotation
											JOINT LeftHandRing3
											{
												OFFSET 3.56744 0.00000 0.00000
												CHANNELS 3 Zrotation Xrotation Yrotation
												End site
												{
													OFFSET 0.00000 0.00000 0.00000
												}
											}
										}
									}
									JOINT LeftHandPinky1
									{
										OFFSET 11.11390 0.00000 -6.03719
										CHANNELS 3 Zrotation Xrotation Yrotation
										JOINT LeftHandPinky2
										{
											OFFSET 4.52789 0.00000 0.00000
											CHANNELS 3 Zrotation Xrotation Yrotation
											JOINT LeftHandPinky3
											{
												OFFSET 2.46976 0.00000 0.00000
												CHANNELS 3 Zrotation Xrotation Yrotation
												End site
												{
													OFFSET 0.00000 0.00000 0.00000
												}
											}
										}
									}
								}
							}
						}
					}
					JOINT pCube4
					{
						OFFSET 0.00000 10.91090 1.10792
						CHANNELS 3 Zrotation Xrotation Yrotation
						End site
						{
							OFFSET 0.00000 0.00000 0.00000
						}
					}
				}
			}
		}
	}
	JOINT RightUpLeg
	{
		OFFSET -9.98441 0.00000 0.00000
		CHANNELS 3 Zrotation Xrotation Yrotation
		JOINT RightLeg
		{
			OFFSET 0.00000 -42.11790 0.00000
			CHANNELS 3 Zrotation Xrotation Yrotation
			JOINT RightFoot
			{
				OFFSET 0.00000 -45.00020 -0.00001
				CHANNELS 3 Zrotation Xrotation Yrotation
				JOINT RightForeFoot
				{
					OFFSET 0.00000 -3.74820 0.00000
					CHANNELS 3 Zrotation Xrotation Yrotation
					JOINT RightToeBase
					{
						OFFSET 0.00000 0.06325 14.43120
						CHANNELS 3 Zrotation Xrotation Yrotation
						End site
						{
							OFFSET 0.00000 0.00000 0.00000
						}
					}
				}
			}
		}
	}
	JOINT LeftUpLeg
	{
		OFFSET 9.98441 0.00000 0.00000
		CHANNELS 3 Zrotation Xrotation Yrotation
		JOINT LeftLeg
		{
			OFFSET 0.00000 -42.11800 0.00000
			CHANNELS 3 Zrotation Xrotation Yrotation
			JOINT LeftFoot
			{
				OFFSET 0.00000 -45.00070 0.00000
				CHANNELS 3 Zrotation Xrotation Yrotation
				JOINT LeftForeFoot
				{
					OFFSET 0.00000 -3.74824 0.00000
					CHANNELS 3 Zrotation Xrotation Yrotation
					JOINT LeftToeBase
					{
						OFFSET 0.00000 0.06325 14.43110
						CHANNELS 3 Zrotation Xrotation Yrotation
						End site
						{
							OFFSET 0.00000 0.00000 0.00000
						}
					}
				}
			}
		}
	}
}
MOTION
Frames: 4
Frame Time: 0.050000
-0.04686469708979232 -0.010391665137410758 0.030863855539900054 -0.03984133735162172 0.007654633685178317 -0.017018160717834952 -3.175442765958825 0.9066792662548684 -0.7055629087873775 -0.7364633234548863 3.464199165203167 0.2907408288605267 -0.8211388868103177 -1.9699971357838524 -2.130498079282034 -1.0229796244514728 -0.11060873680260198 -0.8964811396297745 -1.9803533732696297 11.580853608587988 4.818075098807791 -0.17608174881987698 -0.4794321050907458 10.277018865458642 -1.613241625998047 -15.27265798994409 0.8594151945141065 -1.9156997488228111 1.2474561973977945 -12.569993293369714 69.17034626902259 14.36913558696979 4.4736180856993615 51.52900677624426 9.949391005037526 91.70645453256786 21.535911784409773 -0.1991611151490595 -4.273828578073697 4.504982512816269 -0.1375576536363731 -1.5670221380592764 0.031608600812867246 0.012109833162215165 -56.19969768596084 0.009843259092614434 0.016799421542295693 -56.190572975766635 -38.76375944837698 0.026171368643425504 0.006302932263532879 -0.013879952378490304 -0.008977888808870646 -0.0019135489649012584 0.043639514435050306 0.025335699822794527 0.0024755828349367305 -36.702947653898654 -0.040302390891708895 0.042568271247713486 0.018065948981297906 0.007685380596723393 -0.02739720213111346 -0.0146337961034745 -0.009639507818385061 0.04039117770711505 -19.79739332164659 -0.016514786072167647 0.0014162841682670406 -0.024031759904713557 0.02988913150080383 -0.014289631991491466 0.02999276033465219 0.004059622235240725 -0.030808512866516403 24.014372835713978 -0.022171794299936813 -0.014943444562527724 28.87130852169426 0.011773400477851184 0.03181019579797067 28.84928881663811 -0.014157143255148885 -0.020505455746896314 8.293998158016937 1.941466275078098 11.6146053555522 -67.04271759194005 12.312463167727467 -20.48789147059326 -71.0061654605731 7.030852617628746 -102.00573825473477 -21.626626370630333 1.0080745559274202 -2.303112495362666 -0.47263631376310666 0.05687507626975476 -8.163152068596554 -0.03369556800132381 0.02529783954144865 44.57931471286362 -0.012347557000220772 -0.003709844544000661 44.582839092367855 12.416673575062532 -0.025027307317714253 0.032801082633353684 0.029146722139040952 0.0021443071115935727 -0.009093279857341829 0.036137257981273575 0.014269061028419367 -0.01732918461948169 11.142262603955313 0.028384783768172217 0.034853452769303406 -0.0208832942214392 -0.03245897974933673 0.014256067717620733 0.02236467092434718 -0.03805444255193229 -0.011384959513352657 4.728162602545706 -0.0036803498234929946 -0.034257956693940994 0.03975357257998959 -0.029299521128013747 0.0022535130802853174 -0.040312204969954926 0.03762993138249111 0.02388164720690893 -5.585412180659177 -0.005041186981945773 0.01221134073048124 -6.700156535737161 -0.030101039285155808 -0.022449299608050532 -6.735234525534292 0.04814564334898639 -0.03307010123618986 0.005644127374982953 0.01056640323152143 -0.001277223219974423 8.041038316863204 3.5038166342402266 -19.234551299156852 -0.0047897978115968715 10.371514511547364 -0.01723942585924174 -5.625609188105727 -15.692293059364047 3.2421920505481325 -0.026517790188675075 -0.04896372089747429 0.018893945498934164 -0.008534318249980395 4.667138536427465 -0.016191504157719395 12.499223484198856 -8.191160514906926 6.929080517516819 -0.04454284594156611 46.39452225627015 0.031013237586022452 -4.315965306193492 -14.797756570906715 -3.84436503408171 -0.030250113558312138 0.03327227569429625 -0.025866959907907914 0.013188811106377056 -10.70183805546003 0.03602027902894269 
0.017443867934665548 0.01833269079304102 0.0037815542413130177 0.005999623077202753 -0.018595469126757812 0.025840459571228654 -3.202797588203781 0.9469099840347298 -0.7404410374931281 -0.8072715229521001 3.489530408628588 0.3029076620502972 -0.8488141975075154 -1.9209551049156666 -2.10973217668433 -0.9663509887513904 -0.10364720629084574 -0.9173879541655716 -1.9490841729689112 11.496414183191312 4.771939817888318 -0.18314405365857012 -0.5411731103089442 10.090183580438492 -1.5418838007106972 -15.392270424625242 0.9067120440249935 -1.9577639202058945 1.2924289544825485 -12.573522716164513 69.66172332872486 15.046202152938381 5.103281637322661 49.534305199118705 9.591546619642322 92.75377800028471 21.681431044863164 -0.18575866670433078 -4.4044473854645 4.532975443232497 -0.1646342843446234 -1.5847453150364565 -0.031196940700044078 -0.0032733072182243098 -56.24050375837198 -0.01487218625839899 0.03587995493240643 -56.2719156428446 -38.75956379975001 0.03185020034140803 -0.0016289516482349583 -0.0454281623143729 -0.01662951189379034 -0.015932308670245688 -0.03498928439129176 -0.010000759584541732 -0.035297171672412885 -36.677037246375086 -0.02980900888665733 0.016713464173064452 0.023399385305079713 0.02344753334178861 0.016110397750388493 0.020966307599054497 0.034528107875960425 0.017495629401508683 -19.80308083338513 0.02194511091625294 0.023386550233294976 -0.028618918307980877 -0.012307449038691241 0.017483504814879248 -0.0468947938940826 0.016339064678068522 -0.01781565692925009 24.053855632205956 -0.015581647552852407 0.044299030257479645 28.90588455711051 -0.0036373307746405395 -0.02312252611017062 28.816003789892022 0.003231257793969741 -0.023764766931008503 8.295207743770288 1.9572384645177925 11.520606755761095 -67.48059900533754 13.500359461926136 -20.691072789418172 -68.00203711423299 7.41343222406437 -100.89243381953733 -21.39322902225523 0.6446824074323578 -1.632273342648393 -0.46903334104855915 0.04182759046851282 -8.150913473948762 0.032581927531916896 0.004746082564707209 44.535492361088465 0.04333237852779836 -0.02029587820191986 44.568863296276504 12.421917483495804 -0.02910493385723632 0.005868458643561963 -0.038605088264261296 -0.016456434828175718 -0.04544675210724568 -0.012855651473860526 -0.003396960507483573 -0.041672341232731 11.133292488791252 -0.0480856069008823 -0.04668771643665887 0.006499729080115306 -0.013147701832220506 0.015379733076623998 0.02278571731891266 -0.03774947543837214 0.0262361930243338 4.762017045991158 0.011696319830440418 -0.01953321225738353 -0.011775239731887207 -0.014862467684660095 -0.03165945672610574 -0.02152106085965639 -0.0235865061672932 -0.011932518925939863 -5.56193038831422 0.017543841640487595 -0.00312977059855829 -6.705318279595012 0.0019508995254477164 0.022218657414920906 -6.7076578923630565 -0.01398364656169063 -0.0014125667366156568 -0.04411718467447576 -2.406704529317594e-05 -0.021957646558020752 8.048200713504627 3.463143930477418 -19.231534690232277 -0.049487116496106306 10.416075247514517 -0.010788445394903087 -5.601462165258948 -15.650048058866089 3.1894393924689712 0.03580674038348412 0.01417877196582553 0.019837434779827 -0.024093704252875454 4.682272060093539 0.032297610886229164 12.471887863983524 -8.229099212405014 6.884138166947181 0.03298939764514708 46.403335285662415 -0.015270916468636108 -4.36433116039863 -14.793892697914787 -3.8179850500248937 0.02620822270241125 -0.03261402508695011 0.03822825703718671 0.0381735850812006 -10.69627420710028 0.016474684735561625 
0.004758607198449785 0.02782537630945794 0.03744894844497739 0.017203304935296256 0.0018648686812592124 -0.046999384648122436 -3.1977451206689094 0.9264112185324371 -0.7909589964683008 -0.7948457093427227 3.492627845882249 0.3276851018547076 -0.8242248632774436 -2.011103538466239 -2.2424314379704553 -0.9891155808187483 -0.11982997221716725 -0.9680349037231976 -1.8775053336025131 11.41691180349539 4.584541914597707 -0.16570273245304828 -0.5679387122943309 9.963365480723622 -1.5271196175410424 -15.523665099823894 0.8905319970341874 -2.1159454082037192 1.3574171671126667 -12.632301644344238 69.58865549351796 15.13578297722598 5.309898659580535 47.83422886965607 9.041543965446845 94.02585759403216 22.03305398655997 -0.19009352790730744 -4.52486078468075 4.516622918276471 -0.10758168541070584 -1.6116155631310223 0.011196127623936953 0.005123913106814039 -56.248566487265634 0.030730652010693617 -0.003233884397456316 -56.18594094669335 -38.753392530139585 -0.023858445879070714 0.016862590255902303 -0.031540030418806084 0.017020148608455913 0.006825704869208806 0.004603415333214077 -0.04965464805195693 -0.012227433810269694 -36.65503471448999 -0.01843105621027957 -0.007723746616607694 -0.020468190309732008 -0.006983895307942062 -0.004049437345721038 -0.03084014244440362 0.012726851951815702 -0.0216715104158203 -19.788849673101904 0.030979094634670898 -0.027396943772700053 0.015049415048299463 0.02774040663925817 -0.03272059732476767 0.020222183968694497 0.015807637403933133 -0.02995828475161465 24.017204718506935 -0.022362961268862242 -0.022515447761142282 28.888726237569617 -0.0004632664213675607 -0.046879977467031764 28.85525845301026 -0.0050713014149146255 -0.014448999094230782 8.396460400565532 1.8990920604821975 11.44060482103683 -67.67611700958231 13.871707327521431 -21.08629849068071 -66.36884494318588 7.400292236360519 -99.64075577492255 -21.155485146659224 -0.05153518561950499 -1.0062755503737197 -0.47278819635643654 0.05009577856812343 -8.167165634315737 -0.01730637088656517 0.008425446910326605 44.59115331005245 0.017315873488364837 0.04491842487086493 44.5549914511653 12.473967772704228 0.039191409083139644 0.04048857674410845 0.04461752905748278 0.03171765813268369 -0.005456720550908904 0.025400332625201777 0.043425525641209904 0.04095373635575395 11.12637608923997 0.016018463236531395 0.005571651425372295 0.045777671967516725 0.0008524168049020554 -0.024161242659279387 -0.03154562642892971 -0.0012510280293511877 0.016128935441756233 4.819019040222252 -0.005284148547746761 0.04081524999570522 0.04959957658236206 -0.0009691309284915024 0.010788115697529894 -0.020702718441893045 -0.0365001586716896 -0.04432159834612969 -5.632741992455012 -0.026570664643991607 0.008998506290527765 -6.72933821994229 0.007564919722025537 0.017949894433731982 -6.675197378762884 0.03902814384784436 0.011678604284961203 -0.005956230905188637 -0.03748761001532822 0.03655798314436107 8.09221805659082 3.4955656033689824 -19.21500683734691 0.04001871184411063 10.361766029921068 0.04784452238915983 -5.651680745981245 -15.652651414414542 3.205023376080517 0.027241391873367073 0.03625941145238621 -0.037413727409081776 -0.020872556712802023 4.723357626645393 0.04526315088866872 12.429354983904323 -8.201057548152457 6.928722325133904 0.021636480927737463 46.370667345260415 0.03518263819381515 -4.359124034172583 -14.772809860083312 -3.832205170779808 0.021470895099808155 -0.01521053130397112 -0.0352499645148865 -0.006428525906844918 -10.794254621934746 -0.017799320451539632 
-0.014303942830136314 -0.015227338895127576 -0.03859201800565955 -0.004393218961366167 0.023127525718347485 0.03415629106604226 -3.14327854501487 0.8636154673586295 -0.797366784335259 -0.7437196416453624 3.461479246054339 0.33676904921599704 -0.8324000458698042 -2.058330818006497 -2.476610957650719 -0.9762334185281277 -0.149846264466893 -1.0173014693554139 -1.8767335755724035 11.49351775096111 4.482515719084796 -0.13078599867770357 -0.5749941190954457 9.924269334722037 -1.5385848456235252 -15.499602811613418 0.8467163457846555 -2.414011772698928 1.3660737258400077 -12.779988915770948 68.99589623099928 13.934182610931972 5.3492426852154 47.62326048830125 8.332773121238658 95.2143503925284 22.65567695121926 -0.31888804011051053 -4.564616401239249 4.494431068011134 -0.1511812735910535 -1.5975633239469345 -0.001242094028894994 0.009625598698850508 -56.22111498588493 0.001661804070748547 0.010138091515905754 -56.21565068007836 -38.73638994119329 0.0403283655458099 -0.010894259602107563 0.03178388664630239 0.029403841951391407 0.01539163480631628 -0.004741649872693477 0.041135237955673316 -0.024308521567599606 -36.66375547469474 0.04701804919212377 -0.008565223498462178 -0.04141276200372748 0.03692737704208174 -0.04042097527653742 0.039966106934887884 -0.028584595021002423 0.04981980301773952 -19.73885271647801 -0.033703485103898145 0.02070493429121561 -0.003726357893667101 -0.028910585300532112 -0.027780898119584802 0.01758342974407177 0.016675737271805456 0.02705834996541246 24.052999757225447 0.011018087696402435 0.004876325446783264 28.88355678058228 -0.0003672687759636579 0.045493956750519426 28.83377880812821 -0.011824449954623275 0.03772114505136102 8.61474834642245 1.9788545429961844 11.360144751509099 -67.63287551818676 13.512915389047796 -21.62659876632363 -67.20988103433805 7.084026264742844 -99.15458474129393 -21.192404820267985 -0.7246232503987438 -0.31509758788636255 -0.4523854582083999 0.06699359661505223 -8.117392977372983 -0.023754543655394117 0.04112737483814507 44.607187450763654 -0.0364533161120138 -0.02162321398282145 44.55238296911028 12.464419904135422 -0.03213912832292834 -0.008574397707905655 0.035076466930722576 -0.0071821598778409445 -0.014281239967009494 -0.04432494655563423 -0.019590423563713537 -0.0330299496011658 11.095621532472595 -0.035335047458101655 -0.01416418614675372 -0.048519654054933546 0.037261705426488274 0.017816317436270032 -0.043391082792574115 0.015718810399320847 0.03127345984632598 4.778807436449729 0.029249714496926985 0.007896759190058018 0.012338505571477375 -0.011953190343897614 -0.003814244488729639 0.010713762001938576 0.0018481587582923821 0.017140105814325495 -5.624946556134479 -0.018477436535681232 0.007538524048838782 -6.750938070243231 -0.02461474510241225 -0.035364008481032896 -6.687596376543777 -0.01678836692380693 0.024441446610305152 0.03750412152768302 0.015986015819441465 0.015513082690494536 8.035913049644549 3.4772437957537745 -19.190341474820684 0.00041648436490595133 10.426920139250544 0.010471903519164948 -5.59669001533632 -15.70738972336791 3.208367743391956 -0.0008630480936559752 0.03974289985518044 -0.002654988512833361 0.02764150332462528 4.654152247975012 -0.008243186193281717 12.451387940573564 -8.224062253706514 6.83736345561474 -0.04582777871836061 46.38164238552859 -0.033533311437001494 -4.306421879371061 -14.789243329347544 -3.870324927532576 0.03139949680377685 -0.007257535362501971 -0.0361396389333814 -0.022465943455352907 -10.790842363992557 0.04329271596223321 
